<svg width="23" height="23" viewBox="0 0 23 23" fill="none" xmlns="http://www.w3.org/2000/svg">
<path d="M20.3109 2.28801H15.1825C14.6672 1.01665 13.3177 0.0960083 11.7227 0.0960083C10.1277 0.0960083 8.77816 1.01665 8.26287 2.28801H3.13446C1.78488 2.28801 0.680679 3.27441 0.680679 4.48001V19.824C0.680679 21.0296 1.78488 22.016 3.13446 22.016H20.3109C21.6605 22.016 22.7647 21.0296 22.7647 19.824V4.48001C22.7647 3.27441 21.6605 2.28801 20.3109 2.28801ZM11.7227 2.28801C12.3975 2.28801 12.9496 2.78121 12.9496 3.38401C12.9496 3.98681 12.3975 4.48001 11.7227 4.48001C11.0479 4.48001 10.4958 3.98681 10.4958 3.38401C10.4958 2.78121 11.0479 2.28801 11.7227 2.28801ZM14.1765 17.632H5.58824V15.44H14.1765V17.632ZM17.8572 13.248H5.58824V11.056H17.8572V13.248ZM17.8572 8.86401H5.58824V6.67201H17.8572V8.86401Z" fill="#EAB308"/>
</svg>
