<svg width="20" height="20" viewBox="0 0 24 24" fill="none" xmlns="http://www.w3.org/2000/svg">
<path d="M6.66667 19.2H13.3333C13.7111 19.2 14.028 19.0848 14.284 18.8544C14.5391 18.6248 14.6667 18.34 14.6667 18C14.6667 17.66 14.5391 17.3748 14.284 17.1444C14.028 16.9148 13.7111 16.8 13.3333 16.8H6.66667C6.28889 16.8 5.972 16.9148 5.716 17.1444C5.46089 17.3748 5.33333 17.66 5.33333 18C5.33333 18.34 5.46089 18.6248 5.716 18.8544C5.972 19.0848 6.28889 19.2 6.66667 19.2ZM6.66667 14.4H17.3333C17.7111 14.4 18.0276 14.2848 18.2827 14.0544C18.5387 13.8248 18.6667 13.54 18.6667 13.2C18.6667 12.86 18.5387 12.5748 18.2827 12.3444C18.0276 12.1148 17.7111 12 17.3333 12H6.66667C6.28889 12 5.972 12.1148 5.716 12.3444C5.46089 12.5748 5.33333 12.86 5.33333 13.2C5.33333 13.54 5.46089 13.8248 5.716 14.0544C5.972 14.2848 6.28889 14.4 6.66667 14.4ZM6.66667 9.6H17.3333C17.7111 9.6 18.0276 9.4848 18.2827 9.2544C18.5387 9.0248 18.6667 8.74 18.6667 8.4C18.6667 8.06 18.5387 7.7748 18.2827 7.5444C18.0276 7.3148 17.7111 7.2 17.3333 7.2H6.66667C6.28889 7.2 5.972 7.3148 5.716 7.5444C5.46089 7.7748 5.33333 8.06 5.33333 8.4C5.33333 8.74 5.46089 9.0248 5.716 9.2544C5.972 9.4848 6.28889 9.6 6.66667 9.6ZM2.66667 21.6H21.3333V4.8H2.66667V21.6ZM2.66667 4.8V21.6V4.8ZM2.66667 24C1.93333 24 1.30533 23.7652 0.782667 23.2956C0.260889 22.8252 0 22.26 0 21.6V4.8C0 4.14 0.260889 3.5748 0.782667 3.1044C1.30533 2.6348 1.93333 2.4 2.66667 2.4H8.26667C8.55556 1.68 9.03911 1.1 9.71733 0.66C10.3947 0.22 11.1556 0 12 0C12.8444 0 13.6058 0.22 14.284 0.66C14.9613 1.1 15.4444 1.68 15.7333 2.4H21.3333C22.0667 2.4 22.6947 2.6348 23.2173 3.1044C23.7391 3.5748 24 4.14 24 4.8V21.6C24 22.26 23.7391 22.8252 23.2173 23.2956C22.6947 23.7652 22.0667 24 21.3333 24H2.66667ZM12 3.9C12.2889 3.9 12.528 3.8148 12.7173 3.6444C12.9058 3.4748 13 3.26 13 3C13 2.74 12.9058 2.5248 12.7173 2.3544C12.528 2.1848 12.2889 2.1 12 2.1C11.7111 2.1 11.4724 2.1848 11.284 2.3544C11.0947 2.5248 11 2.74 11 3C11 3.26 11.0947 3.4748 11.284 3.6444C11.4724 3.8148 11.7111 3.9 12 3.9Z" fill="white"/>
</svg>
