<svg width="22" height="24" viewBox="0 0 22 24" fill="none" xmlns="http://www.w3.org/2000/svg">
<path d="M10.8632 24C9.36334 24 8.14743 22.9689 8.14743 21.697H13.5791C13.5791 22.9689 12.3631 24 10.8632 24ZM21.7265 20.5456H0V18.2426L2.71581 17.0911V10.758C2.71581 6.7716 4.64539 4.18653 8.14743 3.48068V0.970459H12.2211C11.3357 1.96526 10.8588 3.17855 10.8632 4.42489C10.8632 4.71435 10.8886 5.0034 10.9393 5.28965H10.8632C9.2064 5.19865 7.60835 5.82699 6.61979 6.95814C5.77456 8.09183 5.35984 9.41813 5.43162 10.758V18.2426H16.2949V10.758C16.2949 10.5151 16.2854 10.2813 16.2663 10.0671C17.1645 10.2245 18.0908 10.2272 18.9903 10.0752C19.0052 10.3181 19.0107 10.5496 19.0107 10.7661V17.0911L21.7265 18.2426V20.5456Z" fill="white" />
</svg>