<svg width="24" height="24" viewBox="0 0 24 24" fill="none" xmlns="http://www.w3.org/2000/svg">
<path d="M20.7 17.85L18.85 16H20V4.99998H7.85001L5.85001 2.99998H20C20.55 2.99998 21.021 3.19564 21.413 3.58698C21.8043 3.97898 22 4.44998 22 4.99998V16C22 16.4166 21.8793 16.7916 21.638 17.125C21.396 17.4583 21.0833 17.7 20.7 17.85V17.85ZM20.5 23.3L15.15 18H14V20H16V22H8.00001V20H10V18H4.00001C3.45001 18 2.97935 17.8043 2.58801 17.413C2.19601 17.021 2.00001 16.55 2.00001 16V4.84998L0.700012 3.49998L2.10001 2.09998L21.9 21.9L20.5 23.3ZM13.15 16L4.00001 6.79998V16H13.15Z" fill="#A855F7"/>
</svg>
