<svg width="200" height="70" viewBox="0 0 200 70" fill="none" xmlns="http://www.w3.org/2000/svg">
<path d="M7.19929 34.6476L6.84922 34.9999L7.1992 35.3523L14.9464 43.1534L11.8741 46.2471L0.70467 35L11.8204 23.8069L14.893 26.9043L7.19929 34.6476ZM35.1129 7.25835L34.7582 6.90111L34.4034 7.25835L22.5828 19.1612L22.2329 19.5135L22.5828 19.8658L53.2141 50.7061L34.7582 69.2904L16.4667 50.8717L27.5787 39.6786L38.0444 50.2172L35.0256 53.257L27.9869 46.1693L27.6319 45.8119L27.2771 46.1695L22.9612 50.5196L22.6116 50.872L22.9613 51.2241L34.6173 62.9612L34.9721 63.3185L35.3269 62.9612L47.1475 51.0584L47.4974 50.7061L47.1475 50.3538L16.3022 19.2939L34.7582 0.70957L53.5926 19.6751L42.4767 30.8683L31.7393 20.0562L34.7582 17.0164L42.0685 24.3775L42.4234 24.735L42.7782 24.3774L47.0942 20.0272L47.4437 19.6749L47.094 19.3227L35.1129 7.25835ZM54.8414 27.1201L57.9138 24.0264L68.8117 35.0041L57.6997 46.1935L54.8416 43.3188L62.5312 35.5718L62.8808 35.2196L62.5312 34.8673L54.8414 27.1201ZM16.8951 35L19.9175 31.96L22.99 35.0539L19.9709 38.0939L16.8951 35ZM49.8168 32.1797L52.8891 35.2734L49.8702 38.3133L46.7979 35.2196L49.8168 32.1797Z" fill="#004AAD" stroke="black" />
<path d="M87.0029 28.9845C85.9167 28.9845 84.8634 28.8395 83.8431 28.5536C82.8309 28.2553 82.0204 27.87 81.4073 27.3936L82.4935 24.9741C83.086 25.4174 83.7855 25.7695 84.6001 26.0347C85.4106 26.2915 86.2212 26.4158 87.0358 26.4158C87.9327 26.4158 88.5993 26.2832 89.0272 26.0181C89.4633 25.7447 89.6855 25.3842 89.6855 24.9409C89.6855 24.6095 89.5538 24.3402 89.2905 24.1289C89.0354 23.9093 88.7062 23.7312 88.303 23.5986C87.908 23.466 87.3691 23.3169 86.6902 23.1511C85.6451 22.9108 84.7894 22.6623 84.1228 22.4054C83.4522 22.1527 82.8762 21.7508 82.3948 21.1956C81.9216 20.6446 81.6871 19.9113 81.6871 18.9916C81.6871 18.1878 81.9011 17.4587 82.329 16.8041C82.7651 16.1536 83.4193 15.6399 84.2874 15.2629C85.1638 14.8776 86.2294 14.6829 87.4802 14.6829C88.3565 14.6829 89.2123 14.7906 90.0475 14.9977C90.891 15.209 91.6274 15.5115 92.2528 15.9092L91.2654 18.3287C90.0023 17.612 88.735 17.2515 87.4637 17.2515C86.575 17.2515 85.9167 17.3965 85.4888 17.6824C85.0609 17.9724 84.847 18.3536 84.847 18.8259C84.847 19.3023 85.0938 19.6545 85.5875 19.8865C86.0813 20.1185 86.8301 20.3463 87.8422 20.5659C88.8832 20.8228 89.7389 21.0755 90.4096 21.3282C91.0761 21.5727 91.648 21.9662 92.1212 22.5048C92.6025 23.0476 92.8453 23.7767 92.8453 24.6923C92.8453 25.4878 92.6231 26.2128 92.187 26.8633C91.7468 27.5179 91.0885 28.0357 90.2121 28.421C89.3316 28.7939 88.2619 28.9845 87.0029 28.9845Z" fill="white" />
<path d="M109.298 28.7524L109.281 20.4498L105.233 27.2941H103.801L99.769 20.6321V28.7524H96.7902V14.9148H99.4234L104.558 23.5156L109.627 14.9148H112.244L112.277 28.7524H109.298Z" fill="white" />
<path d="M126.364 25.786H119.979L118.761 28.7524H115.502L121.624 14.9148H124.768L130.923 28.7524H127.582L126.364 25.786ZM125.36 23.3499L123.188 18.0635L120.999 23.3499H125.36Z" fill="white" />
<path d="M133.513 21.9578H139.076V24.427H133.513V21.9578Z" fill="white" />
<path d="M150.054 28.9845C148.647 28.9845 147.379 28.682 146.252 28.073C145.121 27.4557 144.232 26.6064 143.586 25.5209C142.936 24.4396 142.615 23.2091 142.615 21.8254C142.615 20.4582 142.936 19.2319 143.586 18.1464C144.232 17.0651 145.121 16.2199 146.252 15.6109C147.379 14.9936 148.655 14.6829 150.07 14.6829C151.255 14.6829 152.329 14.8942 153.296 15.3126C154.259 15.7352 155.065 16.3401 155.715 17.1355L153.674 19.0247C152.753 17.9434 151.601 17.4007 150.218 17.4007C149.371 17.4007 148.614 17.5912 147.947 17.9641C147.277 18.3411 146.754 18.8673 146.384 19.5384C146.009 20.2138 145.824 20.9761 145.824 21.8254C145.824 22.6871 146.009 23.4577 146.384 24.1289C146.754 24.8042 147.277 25.3304 147.947 25.7032C148.614 26.0802 149.371 26.2667 150.218 26.2667C151.601 26.2667 152.753 25.7198 153.674 24.626L155.715 26.5152C155.065 27.3231 154.254 27.9363 153.279 28.3547C152.312 28.7732 151.239 28.9845 150.054 28.9845Z" fill="white" />
<path d="M82.4938 41.9602H85.6701V53.196H92.5657V55.7978H82.4938V41.9602Z" fill="white" />
<path d="M106.771 53.2291V55.7978H96.1227V41.9602H106.507V44.5289H99.2825V47.5284H105.668V50.0308H99.2825V53.2291H106.771Z" fill="white" />
<path d="M120.119 52.8314H113.733L112.516 55.7978H109.257L115.379 41.9602H118.523L124.678 55.7978H121.337L120.119 52.8314ZM119.115 50.3953L116.943 45.1089L114.754 50.3953H119.115Z" fill="white" />
<path d="M136.633 55.7978L133.983 51.9365H131.054V55.7978H127.878V41.9602H133.819C135.037 41.9602 136.094 42.1674 136.995 42.5734C137.892 42.9835 138.583 43.5635 139.069 44.3134C139.55 45.0674 139.793 45.9541 139.793 46.9815C139.793 48.009 139.546 48.8997 139.052 49.6496C138.567 50.3912 137.871 50.9588 136.962 51.3565L140.056 55.7978H136.633ZM136.584 46.9815C136.584 46.2109 136.328 45.6143 135.827 45.1917C135.333 44.7733 134.609 44.562 133.654 44.562H131.054V49.3844H133.654C134.609 49.3844 135.333 49.1773 135.827 48.7547C136.328 48.3363 136.584 47.7438 136.584 46.9815Z" fill="white" />
<path d="M156.686 41.9602V55.7978H154.069L147.223 47.3958V55.7978H144.079V41.9602H146.712L153.542 50.3622V41.9602H156.686Z" fill="white" />
<path d="M161.715 41.9602H164.891V55.7978H161.715V41.9602Z" fill="white" />
<path d="M182.529 41.9602V55.7978H179.913L173.066 47.3958V55.7978H169.923V41.9602H172.556L179.386 50.3622V41.9602H182.529Z" fill="white" />
<path d="M196.84 48.6554H199.753V54.2733C199.004 54.8367 198.14 55.2759 197.153 55.5824C196.174 55.8807 195.186 56.0299 194.191 56.0299C192.763 56.0299 191.479 55.7274 190.339 55.1184C189.208 54.5011 188.319 53.6518 187.673 52.5663C187.023 51.485 186.702 50.2546 186.702 48.8708C186.702 47.5036 187.023 46.2773 187.673 45.1918C188.319 44.1105 189.22 43.2653 190.372 42.6563C191.524 42.039 192.816 41.7283 194.256 41.7283C195.462 41.7283 196.552 41.9354 197.531 42.3414C198.519 42.7516 199.342 43.344 200 44.1146L197.959 46.0038C196.98 44.9681 195.795 44.4461 194.404 44.4461C193.524 44.4461 192.746 44.6367 192.068 45.0095C191.385 45.3741 190.854 45.8961 190.471 46.5673C190.097 47.2426 189.912 48.009 189.912 48.8708C189.912 49.7325 190.097 50.5031 190.471 51.1743C190.854 51.8496 191.38 52.3758 192.051 52.7486C192.73 53.1256 193.503 53.3121 194.372 53.3121C195.281 53.3121 196.104 53.1132 196.84 52.7155V48.6554Z" fill="white" />
</svg>