<svg width="24" height="24" viewBox="0 0 32 32" fill="none" xmlns="http://www.w3.org/2000/svg">
<path d="M3.47896 16L7.20412 19.7273L5.46559 21.4659L0 16L5.44097 10.5587L7.1795 12.2973L3.47896 16ZM15.9991 3.47727L21.5158 8.99432L19.5273 10.9811L15.9991 7.45455L14.2851 9.16856L19.5519 14.4356L24.9928 8.99432L15.9991 0L7.1795 8.82008L21.5385 23.1799L16.0994 28.6212L10.7323 23.2538L12.7189 21.267L16.124 24.6705L17.838 22.9564L12.6962 17.8144L7.25525 23.2557L15.9991 32L24.8186 23.1799L10.5581 8.91856L15.9991 3.47727ZM9.16802 14.286L7.4541 16L9.19264 17.7386L10.9066 16.0246L9.16802 14.286ZM22.9551 17.839L24.6709 16.125L22.9305 14.3864L21.2165 16.1004L22.9551 17.839ZM26.6575 10.6591L24.919 12.3977L28.6195 16.1004L24.919 19.8011L26.559 21.4413L32 16L26.6575 10.6591Z" fill="white"/>
</svg>
