<svg width="28" height="28" viewBox="0 0 28 28" fill="none" xmlns="http://www.w3.org/2000/svg">
<rect width="28" height="28" rx="8" fill="#273250" />
<path d="M14.8402 22.4H13.1602V19.88H14.8402V22.4ZM19.3459 20.5335L17.5643 18.7519L18.752 17.5641L20.5345 19.3466L19.3476 20.5335H19.3459ZM8.6544 20.5335L7.4658 19.3457L9.2466 17.5633L10.4352 18.751L8.6544 20.5327V20.5335ZM14.0002 18.2059C11.6775 18.2049 9.79534 16.3215 9.79596 13.9989C9.79658 11.6762 11.6798 9.79379 14.0024 9.7941C16.325 9.7944 18.2077 11.6774 18.2077 14C18.2054 16.3225 16.3227 18.2045 14.0002 18.2059ZM14.0002 11.4741C12.6054 11.475 11.4753 12.6063 11.476 14.0011C11.4766 15.3959 12.6076 16.5262 14.0024 16.5259C15.3972 16.5255 16.5277 15.3948 16.5277 14C16.5263 12.6049 15.3952 11.4746 14.0002 11.4741ZM22.4002 14.84H19.8802V13.16H22.4002V14.84ZM8.12016 14.84H5.60016V13.16H8.12016V14.84ZM18.7512 10.4367L17.5643 9.2481L19.3459 7.46562L20.5345 8.65422L18.752 10.4359L18.7512 10.4367ZM9.24828 10.4367L7.46748 8.65506L8.65608 7.4673L10.4369 9.24978L9.24912 10.4359L9.24828 10.4367ZM14.8402 8.11998H13.1602V5.59998H14.8402V8.11998Z" fill="white" />
</svg>